{
  "source": "C:\\Users\\Peter\\Desktop\\stuff\\MIUN\\quantitative_research\\video_compression\\videos\\BVI-HD\\BVI-HD_CDVL_videos\\ORIG\\Boxing_1920x1080_30fps.mp4",
  "output": "C:\\Users\\Peter\\Desktop\\stuff\\MIUN\\quantitative_research\\video_compression\\compressed_videos\\BVI-HD\\hevc\\1.5\\Boxing_1920x1080_30fps_hevc.mp4",
  "codec": "hevc",
  "ok": "Input #0, mov,mp4,m4a,3gp,3g2,mj2, from 'C:\\Users\\Peter\\Desktop\\stuff\\MIUN\\quantitative_research\\video_compression\\videos\\BVI-HD\\BVI-HD_CDVL_videos\\ORIG\\Boxing_1920x1080_30fps.mp4':\n  Metadata:\n    major_brand     : isom\n    minor_version   : 512\n    compatible_brands: isomiso2avc1mp41\n    encoder         : Lavf54.28.101\n  Duration: 00:00:05.00, start: 0.000000, bitrate: 238363 kb/s\n  Stream #0:0[0x1](und): Video: h264 (High 4:4:4 Predictive) (avc1 / 0x31637661), yuv420p(progressive), 1920x1080, 238359 kb/s, 30 fps, 30 tbr, 30 tbn (default)\n    Metadata:\n      handler_name    : VideoHandler\n      vendor_id       : [0][0][0][0]\n[out#0/mp4 @ 0000019acef0c580] Codec AVOption b:a (set bitrate (in bits/s)) has not been used for any stream. The most likely reason is either wrong type (e.g. a video option with no video streams) or that it is a private option of some decoder which was not actually used for any stream.\nStream mapping:\n  Stream #0:0 -> #0:0 (h264 (native) -> hevc (libx265))\nPress [q] to stop, [?] for help\n[libx265 @ 0000019acf88b240] Unknown option: \"aq-mode.\nx265 [info]: HEVC encoder version 4.1+190-8f11c33ac\nx265 [info]: build info [Windows][GCC 15.1.0][64 bit] 10bit\nx265 [info]: using cpu capabilities: MMX2 SSE2Fast LZCNT SSSE3 SSE4.2 AVX FMA3 BMI2 AVX2\nx265 [info]: Main 10 profile, Level-4 (Main tier)\nx265 [info]: Thread pool created using 12 threads\nx265 [info]: Slices                              : 1\nx265 [info]: frame threads / pool features       : 3 / wpp(17 rows)\nx265 [info]: Coding QT: max CU size, min CU size : 64 / 8\nx265 [info]: Residual QT: max TU size, max depth : 32 / 1 inter / 1 intra\nx265 [info]: ME / range / subpel / merge         : star / 57 / 3 / 3\nx265 [info]: Keyframe min / max / scenecut / bias  : 25 / 250 / 40 / 5.00 \nx265 [info]: Lookahead / bframes / badapt        : 25 / 4 / 2\nx265 [info]: b-pyramid / weightp / weightb       : 1 / 1 / 0\nx265 [info]: References / ref-limit  cu / depth  : 4 / on / on\nx265 [info]: AQ: mode / str / qg-size / cu-tree  : 2 / 1.0 / 32 / 1\nx265 [info]: Rate Control / qCompress            : ABR-1500 kbps / 0.60\nx265 [info]: VBV/HRD buffer / max-rate / init    : 1500 / 1500 / 0.750\nx265 [info]: tools: rect limit-modes rd=4 psy-rd=2.00 rdoq=2 psy-rdoq=1.00\nx265 [info]: tools: rskip mode=1 signhide tmvp strong-intra-smoothing lslices=4\nx265 [info]: tools: deblock sao dhdr10-info\nOutput #0, mp4, to 'C:\\Users\\Peter\\Desktop\\stuff\\MIUN\\quantitative_research\\video_compression\\compressed_videos\\BVI-HD\\hevc\\1.5\\Boxing_1920x1080_30fps_hevc.mp4':\n  Metadata:\n    major_brand     : isom\n    minor_version   : 512\n    compatible_brands: isomiso2avc1mp41\n    encoder         : Lavf62.3.100\n  Stream #0:0(und): Video: hevc (hev1 / 0x31766568), yuv420p10le(tv, progressive), 1920x1080, q=2-31, 1500 kb/s, 30 fps, 15360 tbn (default)\n    Metadata:\n      encoder         : Lavc62.11.100 libx265\n      handler_name    : VideoHandler\n      vendor_id       : [0][0][0][0]\n    Side data:\n      cpb: bitrate max/min/avg: 1500000/0/1500000 buffer size: 1500000 vbv_delay: N/A\nframe=    0 fps=0.0 q=0.0 size=       0KiB time=N/A bitrate=N/A speed=N/A elapsed=0:00:00.52    \nframe=    0 fps=0.0 q=0.0 size=       0KiB time=N/A bitrate=N/A speed=N/A elapsed=0:00:01.09    \nframe=    0 fps=0.0 q=0.0 size=       0KiB time=N/A bitrate=N/A speed=N/A elapsed=0:00:01.61    \nframe=    0 fps=0.0 q=0.0 size=       0KiB time=N/A bitrate=N/A speed=N/A elapsed=0:00:02.12    \nframe=    0 fps=0.0 q=0.0 size=       0KiB time=N/A bitrate=N/A speed=N/A elapsed=0:00:02.66    \nframe=    0 fps=0.0 q=0.0 size=       0KiB time=N/A bitrate=N/A speed=N/A elapsed=0:00:03.26    \nframe=    0 fps=0.0 q=0.0 size=       0KiB time=N/A bitrate=N/A speed=N/A elapsed=0:00:03.78    \nframe=    0 fps=0.0 q=0.0 size=       0KiB time=N/A bitrate=N/A speed=N/A elapsed=0:00:04.35    \nframe=    0 fps=0.0 q=0.0 size=       0KiB time=N/A bitrate=N/A speed=N/A elapsed=0:00:04.90    \nframe=    1 fps=0.2 q=38.1 size=       0KiB time=-00:00:00.03 bitrate=N/A speed=N/A elapsed=0:00:05.41    \nframe=    1 fps=0.2 q=38.1 size=       0KiB time=-00:00:00.03 bitrate=N/A speed=N/A elapsed=0:00:05.95    \nframe=    1 fps=0.2 q=38.1 size=       0KiB time=-00:00:00.03 bitrate=N/A speed=N/A elapsed=0:00:06.49    \nframe=    2 fps=0.3 q=41.9 size=       0KiB time=00:00:00.00 bitrate=N/A speed=   0x elapsed=0:00:07.01    \nframe=    2 fps=0.3 q=41.9 size=       0KiB time=00:00:00.00 bitrate=N/A speed=   0x elapsed=0:00:07.54    \nframe=    3 fps=0.4 q=43.5 size=       0KiB time=00:00:00.03 bitrate=  10.6kbits/s speed=0.00413x elapsed=0:00:08.07    \nframe=    3 fps=0.3 q=43.5 size=       0KiB time=00:00:00.03 bitrate=  10.6kbits/s speed=0.00388x elapsed=0:00:08.60    \nframe=    4 fps=0.4 q=45.6 size=       0KiB time=00:00:00.06 bitrate=   5.3kbits/s speed=0.00731x elapsed=0:00:09.11    \nframe=    4 fps=0.4 q=45.6 size=       0KiB time=00:00:00.06 bitrate=   5.3kbits/s speed=0.00689x elapsed=0:00:09.67    \nframe=    5 fps=0.5 q=43.9 size=       0KiB time=00:00:00.10 bitrate=   3.5kbits/s speed=0.00981x elapsed=0:00:10.19    \nframe=    5 fps=0.5 q=43.9 size=       0KiB time=00:00:00.10 bitrate=   3.5kbits/s speed=0.00932x elapsed=0:00:10.73    \nframe=    6 fps=0.5 q=39.6 size=       0KiB time=00:00:00.13 bitrate=   2.6kbits/s speed=0.0118x elapsed=0:00:11.28    \nframe=    7 fps=0.6 q=42.5 size=       0KiB time=00:00:00.16 bitrate=   2.1kbits/s speed=0.0141x elapsed=0:00:11.81    \nframe=    7 fps=0.6 q=42.5 size=       0KiB time=00:00:00.16 bitrate=   2.1kbits/s speed=0.0135x elapsed=0:00:12.35    \nframe=    8 fps=0.6 q=43.3 size=       0KiB time=00:00:00.20 bitrate=   1.8kbits/s speed=0.0155x elapsed=0:00:12.87    \nframe=    8 fps=0.6 q=43.3 size=       0KiB time=00:00:00.20 bitrate=   1.8kbits/s speed=0.0149x elapsed=0:00:13.43    \nframe=    8 fps=0.6 q=43.3 size=       0KiB time=00:00:00.20 bitrate=   1.8kbits/s speed=0.0143x elapsed=0:00:13.97    \nframe=    8 fps=0.6 q=43.3 size=       0KiB time=00:00:00.20 bitrate=   1.8kbits/s speed=0.0138x elapsed=0:00:14.50    \nframe=    9 fps=0.6 q=42.7 size=       0KiB time=00:00:00.23 bitrate=   1.5kbits/s speed=0.0155x elapsed=0:00:15.02    \nframe=    9 fps=0.6 q=42.7 size=       0KiB time=00:00:00.23 bitrate=   1.5kbits/s speed=0.015x elapsed=0:00:15.60    \nframe=   10 fps=0.6 q=41.7 size=       0KiB time=00:00:00.26 bitrate=   1.3kbits/s speed=0.0165x elapsed=0:00:16.12    \nframe=   10 fps=0.6 q=41.7 size=       0KiB time=00:00:00.26 bitrate=   1.3kbits/s speed=0.016x elapsed=0:00:16.67    \nframe=   11 fps=0.6 q=37.1 size=       0KiB time=00:00:00.30 bitrate=   1.2kbits/s speed=0.0174x elapsed=0:00:17.20    \nframe=   12 fps=0.7 q=40.5 size=       0KiB time=00:00:00.33 bitrate=   1.1kbits/s speed=0.0188x elapsed=0:00:17.74    \nframe=   12 fps=0.7 q=40.5 size=       0KiB time=00:00:00.33 bitrate=   1.1kbits/s speed=0.0183x elapsed=0:00:18.26    \nframe=   13 fps=0.7 q=41.6 size=       0KiB time=00:00:00.36 bitrate=   1.0kbits/s speed=0.0195x elapsed=0:00:18.80    \nframe=   13 fps=0.7 q=41.6 size=       0KiB time=00:00:00.36 bitrate=   1.0kbits/s speed=0.019x elapsed=0:00:19.32    \nframe=   13 fps=0.7 q=41.6 size=       0KiB time=00:00:00.36 bitrate=   1.0kbits/s speed=0.0184x elapsed=0:00:19.91    \nframe=   13 fps=0.6 q=41.6 size=       0KiB time=00:00:00.36 bitrate=   1.0kbits/s speed=0.0179x elapsed=0:00:20.45    \nframe=   13 fps=0.6 q=41.6 size=       0KiB time=00:00:00.36 bitrate=   1.0kbits/s speed=0.0175x elapsed=0:00:20.97    \nframe=   14 fps=0.7 q=40.8 size=       0KiB time=00:00:00.40 bitrate=   0.9kbits/s speed=0.0186x elapsed=0:00:21.48    \nframe=   15 fps=0.7 q=37.0 size=       0KiB time=00:00:00.43 bitrate=   0.8kbits/s speed=0.0197x elapsed=0:00:22.01    \nframe=   16 fps=0.7 q=38.8 size=       0KiB time=00:00:00.46 bitrate=   0.8kbits/s speed=0.0207x elapsed=0:00:22.52    \nframe=   16 fps=0.7 q=38.8 size=       0KiB time=00:00:00.46 bitrate=   0.8kbits/s speed=0.0202x elapsed=0:00:23.04    \nframe=   17 fps=0.7 q=40.5 size=       0KiB time=00:00:00.50 bitrate=   0.7kbits/s speed=0.0212x elapsed=0:00:23.56    \nframe=   17 fps=0.7 q=40.5 size=       0KiB time=00:00:00.50 bitrate=   0.7kbits/s speed=0.0208x elapsed=0:00:24.08    \nframe=   17 fps=0.7 q=40.5 size=       0KiB time=00:00:00.50 bitrate=   0.7kbits/s speed=0.0203x elapsed=0:00:24.61    \nframe=   17 fps=0.7 q=40.5 size=       0KiB time=00:00:00.50 bitrate=   0.7kbits/s speed=0.0199x elapsed=0:00:25.18    \nframe=   18 fps=0.7 q=39.9 size=       0KiB time=00:00:00.53 bitrate=   0.7kbits/s speed=0.0207x elapsed=0:00:25.74    \nframe=   18 fps=0.7 q=39.9 size=       0KiB time=00:00:00.53 bitrate=   0.7kbits/s speed=0.0203x elapsed=0:00:26.26    \nframe=   18 fps=0.7 q=39.9 size=       0KiB time=00:00:00.53 bitrate=   0.7kbits/s speed=0.0199x elapsed=0:00:26.80    \nframe=   19 fps=0.7 q=36.3 size=       0KiB time=00:00:00.56 bitrate=   0.6kbits/s speed=0.0207x elapsed=0:00:27.31    \nframe=   19 fps=0.7 q=36.3 size=       0KiB time=00:00:00.56 bitrate=   0.6kbits/s speed=0.0203x elapsed=0:00:27.85    \nframe=   19 fps=0.7 q=36.3 size=       0KiB time=00:00:00.56 bitrate=   0.6kbits/s speed=0.0199x elapsed=0:00:28.41    \nframe=   19 fps=0.7 q=36.3 size=       0KiB time=00:00:00.56 bitrate=   0.6kbits/s speed=0.0196x elapsed=0:00:28.95    \nframe=   19 fps=0.6 q=36.3 size=       0KiB time=00:00:00.56 bitrate=   0.6kbits/s speed=0.0192x elapsed=0:00:29.56    \nframe=   19 fps=0.6 q=36.3 size=       0KiB time=00:00:00.56 bitrate=   0.6kbits/s speed=0.0187x elapsed=0:00:30.23    \nframe=   19 fps=0.6 q=36.3 size=       0KiB time=00:00:00.56 bitrate=   0.6kbits/s speed=0.0184x elapsed=0:00:30.83    \nframe=   19 fps=0.6 q=36.3 size=       0KiB time=00:00:00.56 bitrate=   0.6kbits/s speed=0.018x elapsed=0:00:31.40    \nframe=   19 fps=0.6 q=36.3 size=       0KiB time=00:00:00.56 bitrate=   0.6kbits/s speed=0.0177x elapsed=0:00:32.04    \nframe=   19 fps=0.6 q=36.3 size=       0KiB time=00:00:00.56 bitrate=   0.6kbits/s speed=0.0174x elapsed=0:00:32.61    \nframe=   20 fps=0.6 q=38.3 size=       0KiB time=00:00:00.60 bitrate=   0.6kbits/s speed=0.0181x elapsed=0:00:33.16    \nframe=   20 fps=0.6 q=38.3 size=       0KiB time=00:00:00.60 bitrate=   0.6kbits/s speed=0.0178x elapsed=0:00:33.69    \nframe=   20 fps=0.6 q=38.3 size=       0KiB time=00:00:00.60 bitrate=   0.6kbits/s speed=0.0175x elapsed=0:00:34.27    \nframe=   20 fps=0.6 q=38.3 size=       0KiB time=00:00:00.60 bitrate=   0.6kbits/s speed=0.0172x elapsed=0:00:34.87    \nframe=   21 fps=0.6 q=40.1 size=       0KiB time=00:00:00.63 bitrate=   0.6kbits/s speed=0.0179x elapsed=0:00:35.40    \nframe=   21 fps=0.6 q=40.1 size=       0KiB time=00:00:00.63 bitrate=   0.6kbits/s speed=0.0176x elapsed=0:00:35.92    \nframe=   21 fps=0.6 q=40.1 size=       0KiB time=00:00:00.63 bitrate=   0.6kbits/s speed=0.0174x elapsed=0:00:36.45    \nframe=   21 fps=0.6 q=40.1 size=       0KiB time=00:00:00.63 bitrate=   0.6kbits/s speed=0.0171x elapsed=0:00:37.00    \nframe=   22 fps=0.6 q=36.3 size=       0KiB time=00:00:00.66 bitrate=   0.5kbits/s speed=0.0178x elapsed=0:00:37.52    \nframe=   22 fps=0.6 q=36.3 size=       0KiB time=00:00:00.66 bitrate=   0.5kbits/s speed=0.0175x elapsed=0:00:38.09    \nframe=   23 fps=0.6 q=39.8 size=       0KiB time=00:00:00.70 bitrate=   0.5kbits/s speed=0.0181x elapsed=0:00:38.63    \nframe=   23 fps=0.6 q=39.8 size=       0KiB time=00:00:00.70 bitrate=   0.5kbits/s speed=0.0179x elapsed=0:00:39.14    \nframe=   24 fps=0.6 q=36.6 size=       0KiB time=00:00:00.73 bitrate=   0.5kbits/s speed=0.0185x elapsed=0:00:39.67    \nframe=   24 fps=0.6 q=36.6 size=       0KiB time=00:00:00.73 bitrate=   0.5kbits/s speed=0.0182x elapsed=0:00:40.21    \nframe=   24 fps=0.6 q=36.6 size=       0KiB time=00:00:00.73 bitrate=   0.5kbits/s speed=0.018x elapsed=0:00:40.74    \nframe=   25 fps=0.6 q=37.7 size=       0KiB time=00:00:00.76 bitrate=   0.5kbits/s speed=0.0186x elapsed=0:00:41.28    \nframe=   26 fps=0.6 q=39.8 size=       0KiB time=00:00:00.80 bitrate=   0.4kbits/s speed=0.0191x elapsed=0:00:41.81    \nframe=   26 fps=0.6 q=39.8 size=       0KiB time=00:00:00.80 bitrate=   0.4kbits/s speed=0.0189x elapsed=0:00:42.33    \nframe=   26 fps=0.6 q=39.8 size=       0KiB time=00:00:00.80 bitrate=   0.4kbits/s speed=0.0187x elapsed=0:00:42.86    \nframe=   27 fps=0.6 q=36.4 size=       0KiB time=00:00:00.83 bitrate=   0.4kbits/s speed=0.0192x elapsed=0:00:43.39    \nframe=   28 fps=0.6 q=39.4 size=       0KiB time=00:00:00.86 bitrate=   0.4kbits/s speed=0.0197x elapsed=0:00:43.98    \nframe=   28 fps=0.6 q=39.4 size=       0KiB time=00:00:00.86 bitrate=   0.4kbits/s speed=0.0195x elapsed=0:00:44.51    \nframe=   29 fps=0.6 q=36.1 size=       0KiB time=00:00:00.90 bitrate=   0.4kbits/s speed=0.02x elapsed=0:00:45.07    \nframe=   29 fps=0.6 q=36.1 size=       0KiB time=00:00:00.90 bitrate=   0.4kbits/s speed=0.0197x elapsed=0:00:45.63    \nframe=   29 fps=0.6 q=36.1 size=       0KiB time=00:00:00.90 bitrate=   0.4kbits/s speed=0.0195x elapsed=0:00:46.17    \nframe=   30 fps=0.6 q=39.3 size=       0KiB time=00:00:00.93 bitrate=   0.4kbits/s speed=0.02x elapsed=0:00:46.71    \nframe=   30 fps=0.6 q=39.3 size=       0KiB time=00:00:00.93 bitrate=   0.4kbits/s speed=0.0197x elapsed=0:00:47.25    \nframe=   30 fps=0.6 q=39.3 size=       0KiB time=00:00:00.93 bitrate=   0.4kbits/s speed=0.0195x elapsed=0:00:47.81    \nframe=   30 fps=0.6 q=39.3 size=       0KiB time=00:00:00.93 bitrate=   0.4kbits/s speed=0.0193x elapsed=0:00:48.35    \nframe=   30 fps=0.6 q=39.3 size=       0KiB time=00:00:00.93 bitrate=   0.4kbits/s speed=0.0191x elapsed=0:00:48.90    \nframe=   31 fps=0.6 q=36.2 size=       0KiB time=00:00:00.96 bitrate=   0.4kbits/s speed=0.0196x elapsed=0:00:49.42    \nframe=   31 fps=0.6 q=36.2 size=       0KiB time=00:00:00.96 bitrate=   0.4kbits/s speed=0.0194x elapsed=0:00:49.94    \nframe=   31 fps=0.6 q=36.2 size=       0KiB time=00:00:00.96 bitrate=   0.4kbits/s speed=0.0192x elapsed=0:00:50.47    \nframe=   31 fps=0.6 q=36.2 size=       0KiB time=00:00:00.96 bitrate=   0.4kbits/s speed=0.019x elapsed=0:00:51.00    \nframe=   32 fps=0.6 q=38.1 size=       0KiB time=00:00:01.00 bitrate=   0.4kbits/s speed=0.0194x elapsed=0:00:51.52    \nframe=   32 fps=0.6 q=38.1 size=       0KiB time=00:00:01.00 bitrate=   0.4kbits/s speed=0.0192x elapsed=0:00:52.04    \nframe=   32 fps=0.6 q=38.1 size=       0KiB time=00:00:01.00 bitrate=   0.4kbits/s speed=0.019x elapsed=0:00:52.57    \nframe=   32 fps=0.6 q=38.1 size=       0KiB time=00:00:01.00 bitrate=   0.4kbits/s speed=0.0188x elapsed=0:00:53.10    \nframe=   33 fps=0.6 q=39.2 size=       0KiB time=00:00:01.03 bitrate=   0.3kbits/s speed=0.0193x elapsed=0:00:53.65    \nframe=   33 fps=0.6 q=39.2 size=       0KiB time=00:00:01.03 bitrate=   0.3kbits/s speed=0.0191x elapsed=0:00:54.19    \nframe=   33 fps=0.6 q=39.2 size=       0KiB time=00:00:01.03 bitrate=   0.3kbits/s speed=0.0189x elapsed=0:00:54.72    \nframe=   34 fps=0.6 q=35.9 size=       0KiB time=00:00:01.06 bitrate=   0.3kbits/s speed=0.0193x elapsed=0:00:55.24    \nframe=   34 fps=0.6 q=35.9 size=       0KiB time=00:00:01.06 bitrate=   0.3kbits/s speed=0.0191x elapsed=0:00:55.77    \nframe=   34 fps=0.6 q=35.9 size=       0KiB time=00:00:01.06 bitrate=   0.3kbits/s speed=0.0189x elapsed=0:00:56.31    \nframe=   35 fps=0.6 q=36.5 size=       0KiB time=00:00:01.10 bitrate=   0.3kbits/s speed=0.0194x elapsed=0:00:56.84    \nframe=   35 fps=0.6 q=36.5 size=       0KiB time=00:00:01.10 bitrate=   0.3kbits/s speed=0.0192x elapsed=0:00:57.34    \nframe=   36 fps=0.6 q=39.3 size=       0KiB time=00:00:01.13 bitrate=   0.3kbits/s speed=0.0196x elapsed=0:00:57.86    \nframe=   36 fps=0.6 q=39.3 size=       0KiB time=00:00:01.13 bitrate=   0.3kbits/s speed=0.0194x elapsed=0:00:58.39    \nframe=   37 fps=0.6 q=35.8 size=       0KiB time=00:00:01.16 bitrate=   0.3kbits/s speed=0.0198x elapsed=0:00:58.90    \nframe=   37 fps=0.6 q=35.8 size=       0KiB time=00:00:01.16 bitrate=   0.3kbits/s speed=0.0196x elapsed=0:00:59.43    \nframe=   38 fps=0.6 q=37.3 size=       0KiB time=00:00:01.20 bitrate=   0.3kbits/s speed=0.02x elapsed=0:00:59.94    \nframe=   38 fps=0.6 q=37.3 size=       0KiB time=00:00:01.20 bitrate=   0.3kbits/s speed=0.0198x elapsed=0:01:00.47    \nframe=   38 fps=0.6 q=37.3 size=       0KiB time=00:00:01.20 bitrate=   0.3kbits/s speed=0.0197x elapsed=0:01:01.03    \nframe=   38 fps=0.6 q=37.3 size=       0KiB time=00:00:01.20 bitrate=   0.3kbits/s speed=0.0195x elapsed=0:01:01.56    \nframe=   38 fps=0.6 q=37.3 size=       0KiB time=00:00:01.20 bitrate=   0.3kbits/s speed=0.0193x elapsed=0:01:02.08    \nframe=   38 fps=0.6 q=37.3 size=       0KiB time=00:00:01.20 bitrate=   0.3kbits/s speed=0.0192x elapsed=0:01:02.62    \nframe=   38 fps=0.6 q=37.3 size=       0KiB time=00:00:01.20 bitrate=   0.3kbits/s speed=0.019x elapsed=0:01:03.13    \nframe=   38 fps=0.6 q=37.3 size=       0KiB time=00:00:01.20 bitrate=   0.3kbits/s speed=0.0189x elapsed=0:01:03.64    \nframe=   38 fps=0.6 q=37.3 size=       0KiB time=00:00:01.20 bitrate=   0.3kbits/s speed=0.0187x elapsed=0:01:04.18    \nframe=   39 fps=0.6 q=39.0 size=       0KiB time=00:00:01.23 bitrate=   0.3kbits/s speed=0.0191x elapsed=0:01:04.71    \nframe=   39 fps=0.6 q=39.0 size=       0KiB time=00:00:01.23 bitrate=   0.3kbits/s speed=0.0189x elapsed=0:01:05.25    \nframe=   39 fps=0.6 q=39.0 size=       0KiB time=00:00:01.23 bitrate=   0.3kbits/s speed=0.0188x elapsed=0:01:05.76    \nframe=   40 fps=0.6 q=38.7 size=       0KiB time=00:00:01.26 bitrate=   0.3kbits/s speed=0.0191x elapsed=0:01:06.28    \nframe=   40 fps=0.6 q=38.7 size=       0KiB time=00:00:01.26 bitrate=   0.3kbits/s speed=0.019x elapsed=0:01:06.80    \nframe=   40 fps=0.6 q=38.7 size=       0KiB time=00:00:01.26 bitrate=   0.3kbits/s speed=0.0188x elapsed=0:01:07.32    \nframe=   41 fps=0.6 q=35.1 size=       0KiB time=00:00:01.30 bitrate=   0.3kbits/s speed=0.0192x elapsed=0:01:07.85    \nframe=   41 fps=0.6 q=35.1 size=       0KiB time=00:00:01.30 bitrate=   0.3kbits/s speed=0.019x elapsed=0:01:08.37    \nframe=   41 fps=0.6 q=35.1 size=       0KiB time=00:00:01.30 bitrate=   0.3kbits/s speed=0.0189x elapsed=0:01:08.88    \nframe=   41 fps=0.6 q=35.1 size=       0KiB time=00:00:01.30 bitrate=   0.3kbits/s speed=0.0187x elapsed=0:01:09.40    \nframe=   42 fps=0.6 q=37.4 size=       0KiB time=00:00:01.30 bitrate=   0.3kbits/s speed=0.0186x elapsed=0:01:09.94    \nframe=   42 fps=0.6 q=37.4 size=       0KiB time=00:00:01.33 bitrate=   0.3kbits/s speed=0.0189x elapsed=0:01:10.49    \nframe=   42 fps=0.6 q=37.4 size=       0KiB time=00:00:01.33 bitrate=   0.3kbits/s speed=0.0188x elapsed=0:01:11.03    \nframe=   42 fps=0.6 q=37.4 size=       0KiB time=00:00:01.33 bitrate=   0.3kbits/s speed=0.0186x elapsed=0:01:11.57    \nframe=   42 fps=0.6 q=37.4 size=       0KiB time=00:00:01.33 bitrate=   0.3kbits/s speed=0.0185x elapsed=0:01:12.07    \nframe=   43 fps=0.6 q=38.5 size=       0KiB time=00:00:01.36 bitrate=   0.3kbits/s speed=0.0188x elapsed=0:01:12.59    \nframe=   43 fps=0.6 q=38.5 size=       0KiB time=00:00:01.36 bitrate=   0.3kbits/s speed=0.0187x elapsed=0:01:13.13    \nframe=   43 fps=0.6 q=38.5 size=       0KiB time=00:00:01.36 bitrate=   0.3kbits/s speed=0.0186x elapsed=0:01:13.67    \nframe=   44 fps=0.6 q=39.0 size=       0KiB time=00:00:01.40 bitrate=   0.3kbits/s speed=0.0189x elapsed=0:01:14.19    \nframe=   44 fps=0.6 q=39.0 size=       0KiB time=00:00:01.40 bitrate=   0.3kbits/s speed=0.0187x elapsed=0:01:14.71    \nframe=   44 fps=0.6 q=39.0 size=       0KiB time=00:00:01.40 bitrate=   0.3kbits/s speed=0.0186x elapsed=0:01:15.24    \nframe=   44 fps=0.6 q=39.0 size=       0KiB time=00:00:01.40 bitrate=   0.3kbits/s speed=0.0185x elapsed=0:01:15.78    \nframe=   45 fps=0.6 q=35.7 size=       0KiB time=00:00:01.43 bitrate=   0.2kbits/s speed=0.0188x elapsed=0:01:16.29    \nframe=   45 fps=0.6 q=35.7 size=       0KiB time=00:00:01.43 bitrate=   0.2kbits/s speed=0.0187x elapsed=0:01:16.81    \nframe=   45 fps=0.6 q=35.7 size=       0KiB time=00:00:01.43 bitrate=   0.2kbits/s speed=0.0185x elapsed=0:01:17.35    \nframe=   45 fps=0.6 q=35.7 size=       0KiB time=00:00:01.43 bitrate=   0.2kbits/s speed=0.0184x elapsed=0:01:17.87    \nframe=   46 fps=0.6 q=36.4 size=       0KiB time=00:00:01.46 bitrate=   0.2kbits/s speed=0.0187x elapsed=0:01:18.42    \nframe=   46 fps=0.6 q=36.4 size=       0KiB time=00:00:01.46 bitrate=   0.2kbits/s speed=0.0186x elapsed=0:01:18.96    \nframe=   47 fps=0.6 q=38.7 size=       0KiB time=00:00:01.50 bitrate=   0.2kbits/s speed=0.0189x elapsed=0:01:19.47    \nframe=   47 fps=0.6 q=38.7 size=       0KiB time=00:00:01.50 bitrate=   0.2kbits/s speed=0.0188x elapsed=0:01:19.99    \nframe=   47 fps=0.6 q=38.7 size=       0KiB time=00:00:01.50 bitrate=   0.2kbits/s speed=0.0186x elapsed=0:01:20.51    \nframe=   47 fps=0.6 q=38.7 size=       0KiB time=00:00:01.50 bitrate=   0.2kbits/s speed=0.0185x elapsed=0:01:21.02    \nframe=   48 fps=0.6 q=35.7 size=     256KiB time=00:00:01.53 bitrate=1367.9kbits/s speed=0.0188x elapsed=0:01:21.54    \nframe=   48 fps=0.6 q=35.7 size=     256KiB time=00:00:01.53 bitrate=1367.9kbits/s speed=0.0187x elapsed=0:01:22.04    \nframe=   49 fps=0.6 q=36.3 size=     256KiB time=00:00:01.56 bitrate=1338.8kbits/s speed=0.019x elapsed=0:01:22.56    \nframe=   49 fps=0.6 q=36.3 size=     256KiB time=00:00:01.56 bitrate=1338.8kbits/s speed=0.0189x elapsed=0:01:23.08    \nframe=   49 fps=0.6 q=36.3 size=     256KiB time=00:00:01.56 bitrate=1338.8kbits/s speed=0.0187x elapsed=0:01:23.60    \nframe=   49 fps=0.6 q=36.3 size=     256KiB time=00:00:01.56 bitrate=1338.8kbits/s speed=0.0186x elapsed=0:01:24.14    \nframe=   49 fps=0.6 q=36.3 size=     256KiB time=00:00:01.56 bitrate=1338.8kbits/s speed=0.0185x elapsed=0:01:24.71    \nframe=   49 fps=0.6 q=36.3 size=     256KiB time=00:00:01.56 bitrate=1338.8kbits/s speed=0.0184x elapsed=0:01:25.24    \nframe=   50 fps=0.6 q=39.1 size=     256KiB time=00:00:01.60 bitrate=1310.9kbits/s speed=0.0187x elapsed=0:01:25.78    \nframe=   50 fps=0.6 q=39.1 size=     256KiB time=00:00:01.60 bitrate=1310.9kbits/s speed=0.0185x elapsed=0:01:26.32    \nframe=   50 fps=0.6 q=39.1 size=     256KiB time=00:00:01.60 bitrate=1310.9kbits/s speed=0.0184x elapsed=0:01:26.85    \nframe=   51 fps=0.6 q=35.5 size=     256KiB time=00:00:01.63 bitrate=1284.2kbits/s speed=0.0187x elapsed=0:01:27.38    \nframe=   52 fps=0.6 q=37.1 size=     256KiB time=00:00:01.66 bitrate=1258.5kbits/s speed=0.019x elapsed=0:01:27.89    \nframe=   52 fps=0.6 q=37.1 size=     256KiB time=00:00:01.66 bitrate=1258.5kbits/s speed=0.0189x elapsed=0:01:28.41    \nframe=   53 fps=0.6 q=39.0 size=     256KiB time=00:00:01.70 bitrate=1233.8kbits/s speed=0.0191x elapsed=0:01:28.93    \nframe=   54 fps=0.6 q=38.4 size=     256KiB time=00:00:01.73 bitrate=1210.1kbits/s speed=0.0194x elapsed=0:01:29.45    \nframe=   54 fps=0.6 q=38.4 size=     256KiB time=00:00:01.73 bitrate=1210.1kbits/s speed=0.0193x elapsed=0:01:29.96    \nframe=   55 fps=0.6 q=35.0 size=     256KiB time=00:00:01.76 bitrate=1187.3kbits/s speed=0.0195x elapsed=0:01:30.48    \nframe=   55 fps=0.6 q=35.0 size=     256KiB time=00:00:01.76 bitrate=1187.3kbits/s speed=0.0194x elapsed=0:01:30.98    \nframe=   56 fps=0.6 q=37.0 size=     256KiB time=00:00:01.80 bitrate=1165.3kbits/s speed=0.0197x elapsed=0:01:31.50    \nframe=   56 fps=0.6 q=37.0 size=     256KiB time=00:00:01.80 bitrate=1165.3kbits/s speed=0.0196x elapsed=0:01:32.02    \nframe=   57 fps=0.6 q=38.5 size=     256KiB time=00:00:01.83 bitrate=1144.1kbits/s speed=0.0198x elapsed=0:01:32.55    \nframe=   57 fps=0.6 q=38.5 size=     256KiB time=00:00:01.83 bitrate=1144.1kbits/s speed=0.0197x elapsed=0:01:33.09    \nframe=   57 fps=0.6 q=38.5 size=     256KiB time=00:00:01.83 bitrate=1144.1kbits/s speed=0.0196x elapsed=0:01:33.61    \nframe=   57 fps=0.6 q=38.5 size=     256KiB time=00:00:01.83 bitrate=1144.1kbits/s speed=0.0195x elapsed=0:01:34.14    \nframe=   58 fps=0.6 q=35.1 size=     256KiB time=00:00:01.86 bitrate=1123.7kbits/s speed=0.0197x elapsed=0:01:34.68    \nframe=   58 fps=0.6 q=35.1 size=     256KiB time=00:00:01.86 bitrate=1123.7kbits/s speed=0.0196x elapsed=0:01:35.21    \nframe=   58 fps=0.6 q=35.1 size=     256KiB time=00:00:01.86 bitrate=1123.7kbits/s speed=0.0195x elapsed=0:01:35.76    \nframe=   58 fps=0.6 q=35.1 size=     256KiB time=00:00:01.86 bitrate=1123.7kbits/s speed=0.0194x elapsed=0:01:36.30    \nframe=   58 fps=0.6 q=35.1 size=     256KiB time=00:00:01.86 bitrate=1123.7kbits/s speed=0.0193x elapsed=0:01:36.84    \nframe=   59 fps=0.6 q=37.4 size=     256KiB time=00:00:01.90 bitrate=1103.9kbits/s speed=0.0195x elapsed=0:01:37.36    \nframe=   59 fps=0.6 q=37.4 size=     256KiB time=00:00:01.90 bitrate=1103.9kbits/s speed=0.0194x elapsed=0:01:37.87    \nframe=   60 fps=0.6 q=38.9 size=     256KiB time=00:00:01.93 bitrate=1084.9kbits/s speed=0.0196x elapsed=0:01:38.41    \nframe=   60 fps=0.6 q=38.9 size=     256KiB time=00:00:01.93 bitrate=1084.9kbits/s speed=0.0195x elapsed=0:01:38.94    \nframe=   60 fps=0.6 q=38.9 size=     256KiB time=00:00:01.93 bitrate=1084.9kbits/s speed=0.0194x elapsed=0:01:39.45    \nframe=   61 fps=0.6 q=38.8 size=     256KiB time=00:00:01.96 bitrate=1066.5kbits/s speed=0.0197x elapsed=0:01:39.98    \nframe=   62 fps=0.6 q=39.3 size=     256KiB time=00:00:02.00 bitrate=1048.8kbits/s speed=0.0199x elapsed=0:01:40.53    \nframe=   63 fps=0.6 q=35.3 size=     256KiB time=00:00:02.03 bitrate=1031.6kbits/s speed=0.0201x elapsed=0:01:41.07    \nframe=   63 fps=0.6 q=35.3 size=     256KiB time=00:00:02.03 bitrate=1031.6kbits/s speed=0.02x elapsed=0:01:41.59    \nframe=   63 fps=0.6 q=35.3 size=     256KiB time=00:00:02.03 bitrate=1031.6kbits/s speed=0.0199x elapsed=0:01:42.11    \nframe=   64 fps=0.6 q=39.4 size=     256KiB time=00:00:02.06 bitrate=1014.9kbits/s speed=0.0201x elapsed=0:01:42.64    \nframe=   64 fps=0.6 q=39.4 size=     256KiB time=00:00:02.06 bitrate=1014.9kbits/s speed=0.02x elapsed=0:01:43.16    \nframe=   64 fps=0.6 q=39.4 size=     256KiB time=00:00:02.06 bitrate=1014.9kbits/s speed=0.0199x elapsed=0:01:43.70    \nframe=   65 fps=0.6 q=35.2 size=     256KiB time=00:00:02.10 bitrate= 998.8kbits/s speed=0.0202x elapsed=0:01:44.20    \nframe=   65 fps=0.6 q=35.2 size=     256KiB time=00:00:02.10 bitrate= 998.8kbits/s speed=0.0201x elapsed=0:01:44.72    \nframe=   65 fps=0.6 q=35.2 size=     256KiB time=00:00:02.10 bitrate= 998.8kbits/s speed=0.02x elapsed=0:01:45.23    \nframe=   66 fps=0.6 q=37.6 size=     256KiB time=00:00:02.13 bitrate= 983.2kbits/s speed=0.0202x elapsed=0:01:45.75    \nframe=   66 fps=0.6 q=37.6 size=     256KiB time=00:00:02.13 bitrate= 983.2kbits/s speed=0.0201x elapsed=0:01:46.28    \nframe=   66 fps=0.6 q=37.6 size=     256KiB time=00:00:02.13 bitrate= 983.2kbits/s speed=0.02x elapsed=0:01:46.78    \nframe=   67 fps=0.6 q=39.6 size=     256KiB time=00:00:02.16 bitrate= 968.1kbits/s speed=0.0202x elapsed=0:01:47.30    \nframe=   68 fps=0.6 q=39.2 size=     256KiB time=00:00:02.20 bitrate= 953.4kbits/s speed=0.0204x elapsed=0:01:47.81    \nframe=   69 fps=0.6 q=35.7 size=     256KiB time=00:00:02.23 bitrate= 939.2kbits/s speed=0.0206x elapsed=0:01:48.34    \nframe=   69 fps=0.6 q=35.7 size=     256KiB time=00:00:02.23 bitrate= 939.2kbits/s speed=0.0205x elapsed=0:01:48.86    \nframe=   70 fps=0.6 q=37.2 size=     256KiB time=00:00:02.26 bitrate= 925.4kbits/s speed=0.0207x elapsed=0:01:49.37    \nframe=   71 fps=0.6 q=38.6 size=     256KiB time=00:00:02.30 bitrate= 912.0kbits/s speed=0.0209x elapsed=0:01:49.89    \nframe=   71 fps=0.6 q=38.6 size=     256KiB time=00:00:02.30 bitrate= 912.0kbits/s speed=0.0208x elapsed=0:01:50.44    \nframe=   71 fps=0.6 q=38.6 size=     256KiB time=00:00:02.30 bitrate= 912.0kbits/s speed=0.0207x elapsed=0:01:50.98    \nframe=   71 fps=0.6 q=38.6 size=     256KiB time=00:00:02.30 bitrate= 912.0kbits/s speed=0.0206x elapsed=0:01:51.52    \nframe=   71 fps=0.6 q=38.6 size=     256KiB time=00:00:02.30 bitrate= 912.0kbits/s speed=0.0205x elapsed=0:01:52.03    \nframe=   72 fps=0.6 q=39.0 size=     256KiB time=00:00:02.33 bitrate= 898.9kbits/s speed=0.0207x elapsed=0:01:52.55    \nframe=   72 fps=0.6 q=39.0 size=     256KiB time=00:00:02.33 bitrate= 898.9kbits/s speed=0.0206x elapsed=0:01:53.06    \nframe=   72 fps=0.6 q=39.0 size=     256KiB time=00:00:02.33 bitrate= 898.9kbits/s speed=0.0205x elapsed=0:01:53.58    \nframe=   74 fps=0.6 q=37.1 size=     256KiB time=00:00:02.40 bitrate= 874.0kbits/s speed=0.021x elapsed=0:01:54.10    \nframe=   74 fps=0.6 q=37.1 size=     256KiB time=00:00:02.40 bitrate= 874.0kbits/s speed=0.0209x elapsed=0:01:54.61    \nframe=   74 fps=0.6 q=37.1 size=     256KiB time=00:00:02.40 bitrate= 874.0kbits/s speed=0.0208x elapsed=0:01:55.14    \nframe=   75 fps=0.6 q=38.7 size=     256KiB time=00:00:02.43 bitrate= 862.0kbits/s speed=0.021x elapsed=0:01:55.67    \nframe=   75 fps=0.6 q=38.7 size=     256KiB time=00:00:02.43 bitrate= 862.0kbits/s speed=0.0209x elapsed=0:01:56.18    \nframe=   76 fps=0.7 q=38.5 size=     256KiB time=00:00:02.46 bitrate= 850.3kbits/s speed=0.0211x elapsed=0:01:56.73    \nframe=   76 fps=0.6 q=38.5 size=     256KiB time=00:00:02.46 bitrate= 850.3kbits/s speed=0.021x elapsed=0:01:57.26    \nframe=   76 fps=0.6 q=38.5 size=     256KiB time=00:00:02.46 bitrate= 850.3kbits/s speed=0.0209x elapsed=0:01:57.80    \nframe=   77 fps=0.7 q=35.1 size=     256KiB time=00:00:02.50 bitrate= 839.0kbits/s speed=0.0211x elapsed=0:01:58.33    \nframe=   78 fps=0.7 q=37.1 size=     256KiB time=00:00:02.53 bitrate= 828.0kbits/s speed=0.0213x elapsed=0:01:58.88    \nframe=   78 fps=0.7 q=37.1 size=     256KiB time=00:00:02.53 bitrate= 828.0kbits/s speed=0.0212x elapsed=0:01:59.39    \nframe=   78 fps=0.7 q=37.1 size=     256KiB time=00:00:02.53 bitrate= 828.0kbits/s speed=0.0211x elapsed=0:01:59.92    \nframe=   80 fps=0.7 q=38.9 size=     256KiB time=00:00:02.60 bitrate= 806.7kbits/s speed=0.0216x elapsed=0:02:00.45    \nframe=   80 fps=0.7 q=38.9 size=     256KiB time=00:00:02.60 bitrate= 806.7kbits/s speed=0.0215x elapsed=0:02:00.97    \nframe=   80 fps=0.7 q=38.9 size=     256KiB time=00:00:02.60 bitrate= 806.7kbits/s speed=0.0214x elapsed=0:02:01.50    \nframe=   80 fps=0.7 q=38.9 size=     256KiB time=00:00:02.60 bitrate= 806.7kbits/s speed=0.0213x elapsed=0:02:02.03    \nframe=   80 fps=0.7 q=38.9 size=     256KiB time=00:00:02.60 bitrate= 806.7kbits/s speed=0.0212x elapsed=0:02:02.56    \nframe=   81 fps=0.7 q=35.6 size=     256KiB time=00:00:02.63 bitrate= 796.5kbits/s speed=0.0214x elapsed=0:02:03.08    \nframe=   81 fps=0.7 q=35.6 size=     256KiB time=00:00:02.63 bitrate= 796.5kbits/s speed=0.0213x elapsed=0:02:03.63    \nframe=   81 fps=0.7 q=35.6 size=     256KiB time=00:00:02.63 bitrate= 796.5kbits/s speed=0.0212x elapsed=0:02:04.31    \nframe=   81 fps=0.6 q=35.6 size=     256KiB time=00:00:02.63 bitrate= 796.5kbits/s speed=0.0211x elapsed=0:02:04.89    \nframe=   82 fps=0.7 q=37.5 size=     256KiB time=00:00:02.66 bitrate= 786.6kbits/s speed=0.0213x elapsed=0:02:05.43    \nframe=   82 fps=0.7 q=37.5 size=     256KiB time=00:00:02.66 bitrate= 786.6kbits/s speed=0.0212x elapsed=0:02:05.97    \nframe=   82 fps=0.6 q=37.5 size=     256KiB time=00:00:02.66 bitrate= 786.6kbits/s speed=0.0211x elapsed=0:02:06.50    \nframe=   82 fps=0.6 q=37.5 size=     256KiB time=00:00:02.66 bitrate= 786.6kbits/s speed=0.021x elapsed=0:02:07.06    \nframe=   82 fps=0.6 q=37.5 size=     256KiB time=00:00:02.66 bitrate= 786.6kbits/s speed=0.0209x elapsed=0:02:07.58    \nframe=   83 fps=0.6 q=39.4 size=     256KiB time=00:00:02.70 bitrate= 776.9kbits/s speed=0.0211x elapsed=0:02:08.09    \nframe=   83 fps=0.6 q=39.4 size=     256KiB time=00:00:02.70 bitrate= 776.9kbits/s speed=0.021x elapsed=0:02:08.61    \nframe=   84 fps=0.7 q=39.2 size=     256KiB time=00:00:02.73 bitrate= 767.4kbits/s speed=0.0212x elapsed=0:02:09.12    \nframe=   85 fps=0.7 q=35.4 size=     256KiB time=00:00:02.76 bitrate= 758.1kbits/s speed=0.0213x elapsed=0:02:09.65    \nframe=   86 fps=0.7 q=39.5 size=     256KiB time=00:00:02.80 bitrate= 749.1kbits/s speed=0.0215x elapsed=0:02:10.17    \nframe=   86 fps=0.7 q=39.5 size=     256KiB time=00:00:02.80 bitrate= 749.1kbits/s speed=0.0214x elapsed=0:02:10.67    \nframe=   86 fps=0.7 q=39.5 size=     256KiB time=00:00:02.80 bitrate= 749.1kbits/s speed=0.0213x elapsed=0:02:11.19    \nframe=   87 fps=0.7 q=35.2 size=     256KiB time=00:00:02.83 bitrate= 740.3kbits/s speed=0.0215x elapsed=0:02:11.71    \nframe=   87 fps=0.7 q=35.2 size=     256KiB time=00:00:02.83 bitrate= 740.3kbits/s speed=0.0214x elapsed=0:02:12.22    \nframe=   87 fps=0.7 q=35.2 size=     256KiB time=00:00:02.83 bitrate= 740.3kbits/s speed=0.0213x elapsed=0:02:12.73    \nframe=   87 fps=0.7 q=35.2 size=     256KiB time=00:00:02.83 bitrate= 740.3kbits/s speed=0.0213x elapsed=0:02:13.28    \nframe=   88 fps=0.7 q=37.7 size=     512KiB time=00:00:02.86 bitrate=1463.3kbits/s speed=0.0214x elapsed=0:02:13.81    \nframe=   88 fps=0.7 q=37.7 size=     512KiB time=00:00:02.86 bitrate=1463.3kbits/s speed=0.0213x elapsed=0:02:14.33    \nframe=   88 fps=0.7 q=37.7 size=     512KiB time=00:00:02.86 bitrate=1463.3kbits/s speed=0.0213x elapsed=0:02:14.88    \nframe=   88 fps=0.6 q=37.7 size=     512KiB time=00:00:02.86 bitrate=1463.3kbits/s speed=0.0212x elapsed=0:02:15.44    \nframe=   89 fps=0.7 q=39.2 size=     512KiB time=00:00:02.90 bitrate=1446.4kbits/s speed=0.0213x elapsed=0:02:15.96    \nframe=   90 fps=0.7 q=39.2 size=     512KiB time=00:00:02.93 bitrate=1430.0kbits/s speed=0.0215x elapsed=0:02:16.51    \nframe=   90 fps=0.7 q=39.2 size=     512KiB time=00:00:02.93 bitrate=1430.0kbits/s speed=0.0214x elapsed=0:02:17.04    \nframe=   90 fps=0.7 q=39.2 size=     512KiB time=00:00:02.93 bitrate=1430.0kbits/s speed=0.0213x elapsed=0:02:17.58    \nframe=   90 fps=0.7 q=39.2 size=     512KiB time=00:00:02.93 bitrate=1430.0kbits/s speed=0.0212x elapsed=0:02:18.11    \nframe=   91 fps=0.7 q=35.2 size=     512KiB time=00:00:02.96 bitrate=1413.9kbits/s speed=0.0214x elapsed=0:02:18.64    \nframe=   91 fps=0.7 q=35.2 size=     512KiB time=00:00:02.96 bitrate=1413.9kbits/s speed=0.0213x elapsed=0:02:19.16    \nframe=   92 fps=0.7 q=37.0 size=     512KiB time=00:00:03.00 bitrate=1398.2kbits/s speed=0.0215x elapsed=0:02:19.69    \nframe=   92 fps=0.7 q=37.0 size=     512KiB time=00:00:03.00 bitrate=1398.2kbits/s speed=0.0214x elapsed=0:02:20.25    \nframe=   92 fps=0.7 q=37.0 size=     512KiB time=00:00:03.00 bitrate=1398.2kbits/s speed=0.0213x elapsed=0:02:20.81    \nframe=   92 fps=0.7 q=37.0 size=     512KiB time=00:00:03.00 bitrate=1398.2kbits/s speed=0.0212x elapsed=0:02:21.43    \nframe=   92 fps=0.6 q=37.0 size=     512KiB time=00:00:03.00 bitrate=1398.2kbits/s speed=0.0211x elapsed=0:02:21.98    \nframe=   92 fps=0.6 q=37.0 size=     512KiB time=00:00:03.00 bitrate=1398.2kbits/s speed=0.021x elapsed=0:02:22.56    \nframe=   92 fps=0.6 q=37.0 size=     512KiB time=00:00:03.00 bitrate=1398.2kbits/s speed=0.021x elapsed=0:02:23.12    \nframe=   92 fps=0.6 q=37.0 size=     512KiB time=00:00:03.00 bitrate=1398.2kbits/s speed=0.0209x elapsed=0:02:23.65    \nframe=   92 fps=0.6 q=37.0 size=     512KiB time=00:00:03.00 bitrate=1398.2kbits/s speed=0.0208x elapsed=0:02:24.21    \nframe=   93 fps=0.6 q=39.2 size=     512KiB time=00:00:03.03 bitrate=1382.9kbits/s speed=0.021x elapsed=0:02:24.72    \nframe=   93 fps=0.6 q=39.2 size=     512KiB time=00:00:03.03 bitrate=1382.9kbits/s speed=0.0209x elapsed=0:02:25.24    \nframe=   93 fps=0.6 q=39.2 size=     512KiB time=00:00:03.03 bitrate=1382.9kbits/s speed=0.0208x elapsed=0:02:25.75    \nframe=   94 fps=0.6 q=35.2 size=     512KiB time=00:00:03.06 bitrate=1367.8kbits/s speed=0.021x elapsed=0:02:26.31    \nframe=   94 fps=0.6 q=35.2 size=     512KiB time=00:00:03.06 bitrate=1367.8kbits/s speed=0.0209x elapsed=0:02:26.88    \nframe=   94 fps=0.6 q=35.2 size=     512KiB time=00:00:03.06 bitrate=1367.8kbits/s speed=0.0208x elapsed=0:02:27.43    \nframe=   95 fps=0.6 q=37.9 size=     512KiB time=00:00:03.10 bitrate=1353.1kbits/s speed=0.0209x elapsed=0:02:27.99    \nframe=   95 fps=0.6 q=37.9 size=     512KiB time=00:00:03.10 bitrate=1353.1kbits/s speed=0.0209x elapsed=0:02:28.51    \nframe=   95 fps=0.6 q=37.9 size=     512KiB time=00:00:03.10 bitrate=1353.1kbits/s speed=0.0208x elapsed=0:02:29.03    \nframe=   96 fps=0.6 q=39.4 size=     512KiB time=00:00:03.13 bitrate=1338.7kbits/s speed=0.0209x elapsed=0:02:29.60    \nframe=   96 fps=0.6 q=39.4 size=     512KiB time=00:00:03.13 bitrate=1338.7kbits/s speed=0.0209x elapsed=0:02:30.14    \nframe=   97 fps=0.6 q=39.5 size=     512KiB time=00:00:03.16 bitrate=1324.6kbits/s speed=0.021x elapsed=0:02:30.66    \nframe=   97 fps=0.6 q=39.5 size=     512KiB time=00:00:03.16 bitrate=1324.6kbits/s speed=0.0209x elapsed=0:02:31.22    \nframe=   97 fps=0.6 q=39.5 size=     512KiB time=00:00:03.16 bitrate=1324.6kbits/s speed=0.0209x elapsed=0:02:31.76    \nframe=   97 fps=0.6 q=39.5 size=     512KiB time=00:00:03.16 bitrate=1324.6kbits/s speed=0.0208x elapsed=0:02:32.32    \nframe=   98 fps=0.6 q=35.8 size=     512KiB time=00:00:03.20 bitrate=1310.8kbits/s speed=0.0209x elapsed=0:02:32.85    \nframe=   98 fps=0.6 q=35.8 size=     512KiB time=00:00:03.20 bitrate=1310.8kbits/s speed=0.0209x elapsed=0:02:33.40    \nframe=   98 fps=0.6 q=35.8 size=     512KiB time=00:00:03.20 bitrate=1310.8kbits/s speed=0.0208x elapsed=0:02:33.95    \nframe=   98 fps=0.6 q=35.8 size=     512KiB time=00:00:03.20 bitrate=1310.8kbits/s speed=0.0207x elapsed=0:02:34.51    \nframe=   98 fps=0.6 q=35.8 size=     512KiB time=00:00:03.20 bitrate=1310.8kbits/s speed=0.0206x elapsed=0:02:35.04    \nframe=   98 fps=0.6 q=35.8 size=     512KiB time=00:00:03.20 bitrate=1310.8kbits/s speed=0.0206x elapsed=0:02:35.64    \nframe=   98 fps=0.6 q=35.8 size=     512KiB time=00:00:03.20 bitrate=1310.8kbits/s speed=0.0205x elapsed=0:02:36.22    \nframe=   98 fps=0.6 q=35.8 size=     512KiB time=00:00:03.20 bitrate=1310.8kbits/s speed=0.0204x elapsed=0:02:36.85    \nframe=   98 fps=0.6 q=35.8 size=     512KiB time=00:00:03.20 bitrate=1310.8kbits/s speed=0.0203x elapsed=0:02:37.41    \nframe=   99 fps=0.6 q=38.3 size=     512KiB time=00:00:03.23 bitrate=1297.3kbits/s speed=0.0205x elapsed=0:02:37.95    \nframe=   99 fps=0.6 q=38.3 size=     512KiB time=00:00:03.23 bitrate=1297.3kbits/s speed=0.0204x elapsed=0:02:38.48    \nframe=   99 fps=0.6 q=38.3 size=     512KiB time=00:00:03.23 bitrate=1297.3kbits/s speed=0.0203x elapsed=0:02:39.01    \nframe=   99 fps=0.6 q=38.3 size=     512KiB time=00:00:03.23 bitrate=1297.3kbits/s speed=0.0203x elapsed=0:02:39.55    \nframe=  100 fps=0.6 q=39.9 size=     512KiB time=00:00:03.26 bitrate=1284.1kbits/s speed=0.0204x elapsed=0:02:40.09    \nframe=  100 fps=0.6 q=39.9 size=     512KiB time=00:00:03.26 bitrate=1284.1kbits/s speed=0.0203x elapsed=0:02:40.61    \nframe=  100 fps=0.6 q=39.9 size=     512KiB time=00:00:03.26 bitrate=1284.1kbits/s speed=0.0203x elapsed=0:02:41.12    \nframe=  101 fps=0.6 q=40.3 size=     512KiB time=00:00:03.30 bitrate=1271.1kbits/s speed=0.0204x elapsed=0:02:41.65    \nframe=  101 fps=0.6 q=40.3 size=     512KiB time=00:00:03.30 bitrate=1271.1kbits/s speed=0.0203x elapsed=0:02:42.16    \nframe=  102 fps=0.6 q=35.5 size=     512KiB time=00:00:03.33 bitrate=1258.4kbits/s speed=0.0205x elapsed=0:02:42.69    \nframe=  102 fps=0.6 q=35.5 size=     512KiB time=00:00:03.33 bitrate=1258.4kbits/s speed=0.0204x elapsed=0:02:43.21    \nframe=  102 fps=0.6 q=35.5 size=     512KiB time=00:00:03.33 bitrate=1258.4kbits/s speed=0.0204x elapsed=0:02:43.74    \nframe=  103 fps=0.6 q=38.7 size=     512KiB time=00:00:03.36 bitrate=1245.9kbits/s speed=0.0205x elapsed=0:02:44.25    \nframe=  104 fps=0.6 q=40.4 size=     512KiB time=00:00:03.40 bitrate=1233.7kbits/s speed=0.0206x elapsed=0:02:44.77    \nframe=  105 fps=0.6 q=35.4 size=     512KiB time=00:00:03.43 bitrate=1221.7kbits/s speed=0.0208x elapsed=0:02:45.29    \nframe=  106 fps=0.6 q=37.8 size=     512KiB time=00:00:03.46 bitrate=1210.0kbits/s speed=0.0209x elapsed=0:02:45.80    \nframe=  106 fps=0.6 q=37.8 size=     512KiB time=00:00:03.46 bitrate=1210.0kbits/s speed=0.0208x elapsed=0:02:46.31    \nframe=  106 fps=0.6 q=37.8 size=     512KiB time=00:00:03.46 bitrate=1210.0kbits/s speed=0.0208x elapsed=0:02:46.82    \nframe=  107 fps=0.6 q=40.1 size=     512KiB time=00:00:03.50 bitrate=1198.5kbits/s speed=0.0209x elapsed=0:02:47.34    \nframe=  107 fps=0.6 q=40.1 size=     512KiB time=00:00:03.50 bitrate=1198.5kbits/s speed=0.0208x elapsed=0:02:47.87    \nframe=  107 fps=0.6 q=40.1 size=     512KiB time=00:00:03.50 bitrate=1198.5kbits/s speed=0.0208x elapsed=0:02:48.39    \nframe=  108 fps=0.6 q=35.4 size=     512KiB time=00:00:03.53 bitrate=1187.2kbits/s speed=0.0209x elapsed=0:02:48.91    \nframe=  108 fps=0.6 q=35.4 size=     512KiB time=00:00:03.53 bitrate=1187.2kbits/s speed=0.0208x elapsed=0:02:49.47    \nframe=  108 fps=0.6 q=35.4 size=     512KiB time=00:00:03.53 bitrate=1187.2kbits/s speed=0.0208x elapsed=0:02:49.99    \nframe=  109 fps=0.6 q=38.5 size=     512KiB time=00:00:03.56 bitrate=1176.1kbits/s speed=0.0209x elapsed=0:02:50.53    \nframe=  109 fps=0.6 q=38.5 size=     512KiB time=00:00:03.56 bitrate=1176.1kbits/s speed=0.0208x elapsed=0:02:51.07    \nframe=  109 fps=0.6 q=38.5 size=     512KiB time=00:00:03.56 bitrate=1176.1kbits/s speed=0.0208x elapsed=0:02:51.58    \nframe=  109 fps=0.6 q=38.5 size=     512KiB time=00:00:03.56 bitrate=1176.1kbits/s speed=0.0207x elapsed=0:02:52.10    \nframe=  110 fps=0.6 q=40.5 size=     512KiB time=00:00:03.60 bitrate=1165.2kbits/s speed=0.0209x elapsed=0:02:52.62    \nframe=  111 fps=0.6 q=40.6 size=     512KiB time=00:00:03.63 bitrate=1154.5kbits/s speed=0.021x elapsed=0:02:53.15    \nframe=  111 fps=0.6 q=40.6 size=     512KiB time=00:00:03.63 bitrate=1154.5kbits/s speed=0.0209x elapsed=0:02:53.68    \nframe=  111 fps=0.6 q=40.6 size=     512KiB time=00:00:03.63 bitrate=1154.5kbits/s speed=0.0209x elapsed=0:02:54.20    \nframe=  112 fps=0.6 q=35.7 size=     512KiB time=00:00:03.66 bitrate=1144.0kbits/s speed=0.021x elapsed=0:02:54.73    \nframe=  112 fps=0.6 q=35.7 size=     512KiB time=00:00:03.66 bitrate=1144.0kbits/s speed=0.0209x elapsed=0:02:55.26    \nframe=  113 fps=0.6 q=38.4 size=     512KiB time=00:00:03.70 bitrate=1133.7kbits/s speed=0.021x elapsed=0:02:55.78    \nframe=  113 fps=0.6 q=38.4 size=     512KiB time=00:00:03.70 bitrate=1133.7kbits/s speed=0.021x elapsed=0:02:56.32    \nframe=  113 fps=0.6 q=38.4 size=     512KiB time=00:00:03.70 bitrate=1133.7kbits/s speed=0.0209x elapsed=0:02:56.84    \nframe=  114 fps=0.6 q=40.5 size=     512KiB time=00:00:03.73 bitrate=1123.6kbits/s speed=0.021x elapsed=0:02:57.36    \nframe=  115 fps=0.6 q=40.3 size=     512KiB time=00:00:03.76 bitrate=1113.6kbits/s speed=0.0212x elapsed=0:02:57.90    \nframe=  115 fps=0.6 q=40.3 size=     512KiB time=00:00:03.76 bitrate=1113.6kbits/s speed=0.0211x elapsed=0:02:58.44    \nframe=  116 fps=0.6 q=35.9 size=     512KiB time=00:00:03.80 bitrate=1103.9kbits/s speed=0.0212x elapsed=0:02:58.97    \nframe=  116 fps=0.6 q=35.9 size=     512KiB time=00:00:03.80 bitrate=1103.9kbits/s speed=0.0212x elapsed=0:02:59.50    \nframe=  116 fps=0.6 q=35.9 size=     512KiB time=00:00:03.80 bitrate=1103.9kbits/s speed=0.0211x elapsed=0:03:00.01    \nframe=  117 fps=0.6 q=38.3 size=     512KiB time=00:00:03.83 bitrate=1094.3kbits/s speed=0.0212x elapsed=0:03:00.55    \nframe=  117 fps=0.6 q=38.3 size=     512KiB time=00:00:03.83 bitrate=1094.3kbits/s speed=0.0212x elapsed=0:03:01.07    \nframe=  118 fps=0.6 q=40.2 size=     512KiB time=00:00:03.86 bitrate=1084.8kbits/s speed=0.0213x elapsed=0:03:01.59    \nframe=  118 fps=0.6 q=40.2 size=     512KiB time=00:00:03.86 bitrate=1084.8kbits/s speed=0.0212x elapsed=0:03:02.11    \nframe=  118 fps=0.6 q=40.2 size=     512KiB time=00:00:03.86 bitrate=1084.8kbits/s speed=0.0212x elapsed=0:03:02.64    \nframe=  119 fps=0.6 q=40.3 size=     512KiB time=00:00:03.90 bitrate=1075.6kbits/s speed=0.0213x elapsed=0:03:03.16    \nframe=  120 fps=0.7 q=35.8 size=     512KiB time=00:00:03.93 bitrate=1066.4kbits/s speed=0.0214x elapsed=0:03:03.70    \nframe=  120 fps=0.7 q=35.8 size=     512KiB time=00:00:03.93 bitrate=1066.4kbits/s speed=0.0214x elapsed=0:03:04.20    \nframe=  121 fps=0.7 q=40.4 size=     512KiB time=00:00:03.96 bitrate=1057.5kbits/s speed=0.0215x elapsed=0:03:04.72    \nframe=  121 fps=0.7 q=40.4 size=     512KiB time=00:00:03.96 bitrate=1057.5kbits/s speed=0.0214x elapsed=0:03:05.25    \nframe=  121 fps=0.7 q=40.4 size=     512KiB time=00:00:03.96 bitrate=1057.5kbits/s speed=0.0214x elapsed=0:03:05.79    \nframe=  121 fps=0.6 q=40.4 size=     512KiB time=00:00:03.96 bitrate=1057.5kbits/s speed=0.0213x elapsed=0:03:06.33    \nframe=  121 fps=0.6 q=40.4 size=     512KiB time=00:00:03.96 bitrate=1057.5kbits/s speed=0.0212x elapsed=0:03:06.88    \nframe=  122 fps=0.7 q=35.3 size=     512KiB time=00:00:04.00 bitrate=1048.7kbits/s speed=0.0213x elapsed=0:03:07.39    \nframe=  122 fps=0.6 q=35.3 size=     512KiB time=00:00:04.00 bitrate=1048.7kbits/s speed=0.0213x elapsed=0:03:07.91    \nframe=  122 fps=0.6 q=35.3 size=     512KiB time=00:00:04.00 bitrate=1048.7kbits/s speed=0.0212x elapsed=0:03:08.43    \nframe=  122 fps=0.6 q=35.3 size=     512KiB time=00:00:04.00 bitrate=1048.7kbits/s speed=0.0212x elapsed=0:03:08.94    \nframe=  123 fps=0.6 q=38.7 size=     512KiB time=00:00:04.03 bitrate=1040.0kbits/s speed=0.0213x elapsed=0:03:09.46    \nframe=  124 fps=0.7 q=40.8 size=     512KiB time=00:00:04.06 bitrate=1031.5kbits/s speed=0.0214x elapsed=0:03:09.98    \nframe=  124 fps=0.7 q=40.8 size=     512KiB time=00:00:04.06 bitrate=1031.5kbits/s speed=0.0213x elapsed=0:03:10.49    \nframe=  124 fps=0.6 q=40.8 size=     512KiB time=00:00:04.06 bitrate=1031.5kbits/s speed=0.0213x elapsed=0:03:11.01    \nframe=  125 fps=0.7 q=40.7 size=     768KiB time=00:00:04.10 bitrate=1534.6kbits/s speed=0.0214x elapsed=0:03:11.53    \nframe=  125 fps=0.7 q=40.7 size=     768KiB time=00:00:04.10 bitrate=1534.6kbits/s speed=0.0213x elapsed=0:03:12.04    \nframe=  126 fps=0.7 q=35.6 size=     768KiB time=00:00:04.13 bitrate=1522.2kbits/s speed=0.0215x elapsed=0:03:12.59    \nframe=  126 fps=0.7 q=35.6 size=     768KiB time=00:00:04.13 bitrate=1522.2kbits/s speed=0.0214x elapsed=0:03:13.11    \nframe=  127 fps=0.7 q=38.3 size=     768KiB time=00:00:04.16 bitrate=1510.0kbits/s speed=0.0215x elapsed=0:03:13.63    \nframe=  127 fps=0.7 q=38.3 size=     768KiB time=00:00:04.16 bitrate=1510.0kbits/s speed=0.0215x elapsed=0:03:14.14    \nframe=  127 fps=0.7 q=38.3 size=     768KiB time=00:00:04.16 bitrate=1510.0kbits/s speed=0.0214x elapsed=0:03:14.66    \nframe=  128 fps=0.7 q=40.4 size=     768KiB time=00:00:04.20 bitrate=1498.0kbits/s speed=0.0215x elapsed=0:03:15.17    \nframe=  129 fps=0.7 q=40.4 size=     768KiB time=00:00:04.23 bitrate=1486.3kbits/s speed=0.0216x elapsed=0:03:15.69    \nframe=  129 fps=0.7 q=40.4 size=     768KiB time=00:00:04.23 bitrate=1486.3kbits/s speed=0.0216x elapsed=0:03:16.21    \nframe=  129 fps=0.7 q=40.4 size=     768KiB time=00:00:04.23 bitrate=1486.3kbits/s speed=0.0215x elapsed=0:03:16.73    \nframe=  129 fps=0.7 q=40.4 size=     768KiB time=00:00:04.23 bitrate=1486.3kbits/s speed=0.0215x elapsed=0:03:17.25    \nframe=  130 fps=0.7 q=35.7 size=     768KiB time=00:00:04.26 bitrate=1474.6kbits/s speed=0.0216x elapsed=0:03:17.77    \nframe=  131 fps=0.7 q=39.0 size=     768KiB time=00:00:04.30 bitrate=1463.2kbits/s speed=0.0217x elapsed=0:03:18.29    \nframe=  131 fps=0.7 q=39.0 size=     768KiB time=00:00:04.30 bitrate=1463.2kbits/s speed=0.0216x elapsed=0:03:18.81    \nframe=  132 fps=0.7 q=40.7 size=     768KiB time=00:00:04.33 bitrate=1452.0kbits/s speed=0.0217x elapsed=0:03:19.33    \nframe=  132 fps=0.7 q=40.7 size=     768KiB time=00:00:04.33 bitrate=1452.0kbits/s speed=0.0217x elapsed=0:03:19.85    \nframe=  132 fps=0.7 q=40.7 size=     768KiB time=00:00:04.33 bitrate=1452.0kbits/s speed=0.0216x elapsed=0:03:20.38    \nframe=  134 fps=0.7 q=36.0 size=     768KiB time=00:00:04.40 bitrate=1430.0kbits/s speed=0.0219x elapsed=0:03:20.92    \nframe=  135 fps=0.7 q=38.6 size=     768KiB time=00:00:04.43 bitrate=1419.2kbits/s speed=0.022x elapsed=0:03:21.42    \nframe=  135 fps=0.7 q=38.6 size=     768KiB time=00:00:04.43 bitrate=1419.2kbits/s speed=0.022x elapsed=0:03:21.95    \nframe=  135 fps=0.7 q=38.6 size=     768KiB time=00:00:04.43 bitrate=1419.2kbits/s speed=0.0219x elapsed=0:03:22.45    \nframe=  135 fps=0.7 q=38.6 size=     768KiB time=00:00:04.43 bitrate=1419.2kbits/s speed=0.0218x elapsed=0:03:22.97    \nframe=  137 fps=0.7 q=40.9 size=     768KiB time=00:00:04.50 bitrate=1398.2kbits/s speed=0.0221x elapsed=0:03:23.48    \nframe=  137 fps=0.7 q=40.9 size=     768KiB time=00:00:04.50 bitrate=1398.2kbits/s speed=0.0221x elapsed=0:03:24.00    \nframe=  138 fps=0.7 q=35.6 size=     768KiB time=00:00:04.53 bitrate=1387.9kbits/s speed=0.0222x elapsed=0:03:24.53    \nframe=  139 fps=0.7 q=38.6 size=     768KiB time=00:00:04.56 bitrate=1377.8kbits/s speed=0.0223x elapsed=0:03:25.05    \nframe=  139 fps=0.7 q=38.6 size=     768KiB time=00:00:04.56 bitrate=1377.8kbits/s speed=0.0222x elapsed=0:03:25.59    \nframe=  139 fps=0.7 q=38.6 size=     768KiB time=00:00:04.56 bitrate=1377.8kbits/s speed=0.0222x elapsed=0:03:26.11    \nframe=  140 fps=0.7 q=40.6 size=     768KiB time=00:00:04.60 bitrate=1367.8kbits/s speed=0.0223x elapsed=0:03:26.62    \nframe=  140 fps=0.7 q=40.6 size=     768KiB time=00:00:04.60 bitrate=1367.8kbits/s speed=0.0222x elapsed=0:03:27.14    \nframe=  141 fps=0.7 q=40.7 size=     768KiB time=00:00:04.63 bitrate=1357.9kbits/s speed=0.0223x elapsed=0:03:27.68    \nframe=  141 fps=0.7 q=40.7 size=     768KiB time=00:00:04.63 bitrate=1357.9kbits/s speed=0.0222x elapsed=0:03:28.25    \nframe=  141 fps=0.7 q=40.7 size=     768KiB time=00:00:04.63 bitrate=1357.9kbits/s speed=0.0222x elapsed=0:03:28.86    \nframe=  141 fps=0.7 q=40.7 size=     768KiB time=00:00:04.63 bitrate=1357.9kbits/s speed=0.0221x elapsed=0:03:29.43    \nframe=  141 fps=0.7 q=40.7 size=     768KiB time=00:00:04.63 bitrate=1357.9kbits/s speed=0.0221x elapsed=0:03:30.00    \nframe=  141 fps=0.7 q=40.7 size=     768KiB time=00:00:04.63 bitrate=1357.9kbits/s speed=0.022x elapsed=0:03:30.62    \nframe=  141 fps=0.7 q=40.7 size=     768KiB time=00:00:04.63 bitrate=1357.9kbits/s speed=0.0219x elapsed=0:03:31.19    \nframe=  142 fps=0.7 q=36.3 size=     768KiB time=00:00:04.66 bitrate=1348.2kbits/s speed=0.022x elapsed=0:03:31.72    \nframe=  142 fps=0.7 q=36.3 size=     768KiB time=00:00:04.66 bitrate=1348.2kbits/s speed=0.022x elapsed=0:03:32.23    \nframe=  143 fps=0.7 q=38.7 size=     768KiB time=00:00:04.70 bitrate=1338.7kbits/s speed=0.0221x elapsed=0:03:32.77    \nframe=  143 fps=0.7 q=38.7 size=     768KiB time=00:00:04.70 bitrate=1338.7kbits/s speed=0.022x elapsed=0:03:33.31    \nframe=  143 fps=0.7 q=38.7 size=     768KiB time=00:00:04.70 bitrate=1338.7kbits/s speed=0.022x elapsed=0:03:33.82    \nframe=  143 fps=0.7 q=38.7 size=     768KiB time=00:00:04.70 bitrate=1338.7kbits/s speed=0.0219x elapsed=0:03:34.36    \nframe=  143 fps=0.7 q=38.7 size=     768KiB time=00:00:04.70 bitrate=1338.7kbits/s speed=0.0219x elapsed=0:03:34.92    \nframe=  145 fps=0.7 q=41.1 size=     768KiB time=00:00:04.76 bitrate=1320.0kbits/s speed=0.0221x elapsed=0:03:35.46    \nframe=  145 fps=0.7 q=41.1 size=     768KiB time=00:00:04.76 bitrate=1320.0kbits/s speed=0.0221x elapsed=0:03:35.98    \nframe=  145 fps=0.7 q=41.1 size=     768KiB time=00:00:04.76 bitrate=1320.0kbits/s speed=0.022x elapsed=0:03:36.50    \nframe=  145 fps=0.7 q=41.1 size=     768KiB time=00:00:04.76 bitrate=1320.0kbits/s speed=0.022x elapsed=0:03:37.03    \nframe=  146 fps=0.7 q=40.5 size=     768KiB time=00:00:04.80 bitrate=1310.8kbits/s speed=0.0221x elapsed=0:03:37.57    \nframe=  146 fps=0.7 q=40.5 size=     768KiB time=00:00:04.80 bitrate=1310.8kbits/s speed=0.022x elapsed=0:03:38.10    \nframe=  147 fps=0.7 q=37.8 size=     768KiB time=00:00:04.83 bitrate=1301.8kbits/s speed=0.0221x elapsed=0:03:38.62    \nframe=  147 fps=0.7 q=37.8 size=     768KiB time=00:00:04.83 bitrate=1301.8kbits/s speed=0.0221x elapsed=0:03:39.14    \nframe=  147 fps=0.7 q=37.8 size=     768KiB time=00:00:04.83 bitrate=1301.8kbits/s speed=0.022x elapsed=0:03:39.68    \nframe=  148 fps=0.7 q=38.7 size=     768KiB time=00:00:04.86 bitrate=1292.8kbits/s speed=0.0221x elapsed=0:03:40.19    \nframe=  148 fps=0.7 q=38.7 size=     768KiB time=00:00:04.86 bitrate=1292.8kbits/s speed=0.0221x elapsed=0:03:40.70    \nframe=  149 fps=0.7 q=40.9 size=     768KiB time=00:00:04.90 bitrate=1284.0kbits/s speed=0.0221x elapsed=0:03:41.23    \n[mp4 @ 0000019acef0c680] Starting second pass: moving the moov atom to the beginning of the file\n[out#0/mp4 @ 0000019acef0c580] video:915KiB audio:0KiB subtitle:0KiB other streams:0KiB global headers:2KiB muxing overhead: 0.565048%\nframe=  150 fps=0.7 q=40.4 Lsize=     920KiB time=00:00:04.93 bitrate=1528.5kbits/s speed=0.0223x elapsed=0:03:41.43    \nx265 [info]: frame I:      1, Avg QP:38.13  kb/s: 3671.28 \nx265 [info]: frame P:     42, Avg QP:36.00  kb/s: 2389.31 \nx265 [info]: frame B:    107, Avg QP:39.41  kb/s: 1128.76 \nx265 [info]: Weighted P-Frames: Y:11.9% UV:9.5%\n\nencoded 150 frames in 221.15s (0.68 fps), 1498.66 kb/s, Avg QP:38.44\n",
  "seconds": 221.75908541679382,
  "probe_out": {}
}